<?xml version="1.0" standalone="no"?>
<!DOCTYPE svg PUBLIC "-//W3C//DTD SVG 20010904//EN"
 "http://www.w3.org/TR/2001/REC-SVG-20010904/DTD/svg10.dtd">
<svg version="1.0" xmlns="http://www.w3.org/2000/svg"
 width="2560.000000pt" height="1613.000000pt" viewBox="0 0 2560.000000 1613.000000"
 preserveAspectRatio="xMidYMid meet">

<g transform="translate(0.000000,1613.000000) scale(0.100000,-0.100000)"
fill="#000000" stroke="none">
<path d="M0 8375 c0 -4265 2 -7755 5 -7755 2 0 28 14 56 31 29 17 93 51 142
75 49 25 159 86 245 136 86 50 223 126 304 169 190 101 705 398 873 504 72 45
218 137 325 205 311 196 573 359 745 465 261 160 647 419 726 487 147 126 294
275 366 371 112 151 135 205 242 587 23 80 50 168 60 196 19 49 62 261 156
769 25 138 73 378 105 535 33 157 87 447 120 645 89 528 127 678 218 860 85
171 157 271 381 523 168 191 180 206 298 402 200 331 325 571 387 739 25 69
46 131 46 138 0 20 96 208 153 298 28 44 69 100 92 125 23 25 50 59 60 75 10
17 41 57 70 90 73 85 172 220 196 267 11 22 27 78 35 125 8 46 27 128 41 181
31 114 31 105 -8 477 -47 455 -45 407 -15 451 14 21 26 51 26 66 0 36 45 87
99 111 34 15 66 19 140 19 109 0 185 -23 295 -89 61 -37 218 -184 250 -234 16
-26 13 -64 -5 -53 -5 3 -6 11 -2 17 4 7 -2 5 -12 -3 -17 -14 -18 -14 -5 10
l13 25 -34 -26 c-37 -29 -55 -85 -24 -72 15 5 16 1 11 -25 -9 -37 10 -53 24
-20 7 18 8 12 4 -23 -5 -41 -3 -49 20 -72 15 -15 35 -46 46 -69 11 -24 29 -58
41 -77 11 -18 18 -40 15 -47 -3 -8 -2 -14 2 -14 11 0 42 -97 47 -145 2 -22 9
-66 15 -97 6 -32 10 -63 8 -70 -1 -7 1 -40 5 -73 4 -34 3 -75 -3 -95 -7 -23
-7 -61 0 -116 7 -56 7 -91 0 -109 -7 -18 -7 -32 0 -45 13 -24 -7 -62 -30 -58
-8 2 -27 -10 -41 -27 -21 -24 -26 -40 -26 -83 0 -29 4 -55 8 -58 5 -3 9 -14 9
-25 0 -10 5 -19 10 -19 6 0 10 -8 10 -18 0 -10 6 -24 12 -30 10 -10 10 -15 -2
-22 -13 -9 -13 -11 0 -20 13 -8 12 -11 -4 -23 -11 -8 -16 -19 -12 -25 3 -6 1
-14 -5 -17 -5 -4 -8 -13 -5 -21 4 -9 -2 -14 -17 -14 -30 0 -53 -36 -36 -56 9
-11 9 -18 1 -26 -7 -7 -12 -22 -12 -35 0 -15 -6 -23 -17 -24 -11 0 -13 -3 -5
-6 20 -8 14 -33 -13 -45 -14 -6 -25 -18 -25 -25 0 -10 -6 -12 -20 -8 -14 4
-20 2 -20 -8 0 -8 -6 -17 -14 -20 -18 -7 -86 3 -86 13 0 12 -47 28 -60 20 -9
-6 -6 -10 11 -15 13 -4 32 -19 43 -34 11 -14 41 -48 67 -76 65 -70 119 -175
89 -175 -5 0 -8 -32 -6 -75 2 -42 -1 -72 -6 -69 -5 3 -8 -12 -7 -33 1 -45 -8
-86 -27 -130 -8 -17 -14 -36 -14 -43 0 -6 -4 -8 -10 -5 -5 3 -7 0 -4 -8 2 -7
0 -26 -6 -41 -7 -18 -7 -25 0 -21 6 4 1 -12 -11 -34 -12 -24 -21 -59 -21 -86
0 -24 -3 -47 -8 -50 -4 -3 -6 5 -3 17 4 21 3 21 -7 5 -6 -10 -9 -25 -6 -32 7
-18 -10 -30 -18 -13 -3 7 -3 3 -1 -9 3 -12 1 -24 -5 -28 -5 -3 -10 -11 -10
-16 0 -6 5 -7 11 -4 6 4 -1 -16 -15 -44 -14 -28 -26 -58 -26 -66 0 -10 -5 -13
-12 -9 -6 4 -8 3 -5 -3 4 -6 -7 -43 -25 -82 -21 -48 -34 -68 -40 -59 -5 9 -8
6 -8 -9 0 -12 -6 -24 -12 -26 -10 -4 -10 -6 0 -6 10 -1 10 -6 2 -22 -6 -11
-10 -28 -7 -37 2 -10 9 0 17 26 7 23 18 42 25 42 6 0 78 44 161 99 82 54 190
121 239 148 l90 50 5 364 5 364 8 -304 c10 -416 9 -1119 -2 -1123 -7 -2 -17
-90 -21 -172 0 -6 -6 -3 -12 6 -19 24 -62 6 -53 -22 8 -24 2 -25 -21 -3 -15
16 -16 14 -13 -24 3 -23 1 -39 -3 -37 -26 16 -58 -70 -34 -88 5 -3 2 -13 -7
-22 -15 -15 -19 -15 -49 4 -18 11 -40 20 -49 20 -9 0 -32 14 -50 31 -19 18
-54 43 -79 57 -25 14 -49 31 -53 38 -4 8 -15 14 -24 14 -9 0 -24 7 -32 14 -11
10 -22 12 -31 6 -11 -7 -6 -16 22 -44 20 -20 34 -36 31 -36 -3 0 -1 -6 4 -12
5 -7 6 -26 2 -43 -3 -16 -7 -22 -8 -13 -1 11 -6 15 -16 12 -24 -10 -18 -27 22
-59 64 -52 134 -118 144 -137 6 -12 6 -25 -1 -39 -11 -19 -13 -19 -36 -4 -14
9 -29 13 -34 10 -6 -4 -24 0 -40 9 -35 17 -38 9 -10 -22 11 -12 20 -28 20 -37
0 -9 13 -35 28 -58 15 -23 37 -62 49 -87 12 -25 33 -70 47 -99 14 -30 26 -63
26 -72 0 -10 5 -21 10 -24 6 -3 10 -16 10 -29 0 -12 4 -26 9 -31 5 -6 14 -28
21 -50 7 -22 18 -47 25 -55 7 -8 13 -22 14 -30 1 -8 4 -39 6 -68 3 -29 11 -63
19 -75 8 -12 19 -40 26 -62 6 -22 16 -49 21 -60 5 -11 18 -60 29 -110 11 -49
22 -99 25 -110 29 -103 43 -193 55 -345 6 -74 20 -216 31 -315 43 -401 44
-731 3 -1127 -4 -32 -10 -55 -15 -52 -11 7 -4 -203 10 -300 9 -62 9 -90 0
-128 -7 -26 -16 -48 -20 -48 -4 0 -5 -9 -2 -20 5 -20 7 -20 24 -4 17 15 19 15
27 -7 21 -55 34 -96 43 -132 5 -21 16 -48 23 -60 8 -12 17 -40 21 -63 6 -37
10 -42 46 -53 21 -6 39 -16 39 -21 0 -6 5 -10 10 -10 18 0 169 -103 164 -112
-3 -4 -1 -8 5 -8 5 0 42 -15 83 -34 40 -18 84 -37 98 -41 14 -4 29 -14 35 -22
6 -8 35 -15 70 -18 33 -2 73 -8 89 -15 16 -6 31 -8 34 -6 2 3 22 -2 43 -11 26
-10 43 -12 52 -6 6 6 51 10 99 9 47 -1 84 2 82 5 -2 4 14 7 36 7 23 1 38 -3
35 -9 -4 -5 -2 -9 4 -9 5 0 11 5 13 11 3 9 10 9 26 0 12 -7 27 -9 33 -6 5 4
17 1 26 -7 14 -11 15 -10 9 12 -4 14 -4 20 1 13 12 -17 93 -43 90 -29 -1 6 12
11 30 11 17 1 41 9 52 19 21 19 22 19 57 0 34 -18 36 -18 49 -1 10 14 14 15
18 4 3 -8 26 -24 51 -37 37 -17 50 -20 61 -10 8 6 23 9 34 5 16 -5 20 -3 15
10 -5 12 0 15 27 13 27 -2 34 1 37 17 7 43 10 45 39 30 36 -19 66 -20 42 -2
-16 12 -15 15 8 35 27 24 48 28 58 12 11 -17 50 -11 69 11 12 15 26 20 46 17
23 -4 30 0 32 16 3 19 4 19 20 2 18 -17 44 -13 33 5 -4 5 5 13 19 19 14 5 26
14 26 19 0 5 15 14 33 22 17 7 35 17 38 22 11 15 56 -4 86 -36 55 -59 143
-211 143 -248 0 -19 5 -41 10 -49 7 -12 11 -8 16 17 3 18 15 40 25 49 11 9 19
22 19 28 1 19 58 88 94 112 41 28 66 31 66 8 0 -13 3 -14 14 -5 10 8 16 9 21
1 8 -13 -4 -32 -16 -24 -5 3 -8 2 -7 -3 3 -10 -127 -177 -184 -237 -22 -22
-65 -75 -96 -116 -31 -41 -94 -127 -141 -190 -83 -111 -276 -351 -430 -535
-181 -215 -453 -461 -791 -716 -91 -69 -192 -145 -225 -170 -97 -74 -213 -141
-227 -133 -7 4 -10 4 -6 -1 14 -15 -105 -91 -124 -79 -7 5 -8 2 -3 -6 6 -10 4
-12 -9 -7 -10 4 -15 3 -11 -3 4 -6 -40 -32 -102 -61 -59 -27 -144 -67 -188
-89 l-80 -39 9023 0 9022 -1 0 8065 0 8065 -12800 0 -12800 0 0 -7755z m17220
-230 l0 -3765 -2280 0 -2279 0 -22 -50 c-28 -64 -115 -183 -160 -216 -69 -51
-212 -104 -284 -104 -50 0 -95 -17 -133 -52 -21 -19 -65 -51 -99 -71 -34 -21
-65 -48 -70 -60 -4 -12 -6 -116 -5 -232 1 -115 -2 -223 -7 -240 -7 -24 -9 -25
-10 -8 -1 12 -5 23 -10 25 -19 6 -27 1205 -36 5383 -3 1326 -8 2446 -11 2489
-8 105 -36 213 -76 289 -47 89 -147 186 -239 231 -144 71 -60 66 -1644 82
-786 8 -1533 13 -1660 11 -213 -4 -236 -6 -308 -30 -185 -60 -300 -179 -368
-382 l-24 -70 3 -1005 c2 -553 2 -1003 -1 -1000 -3 3 -8 127 -12 275 -7 321
-20 490 -39 517 -14 19 -14 19 -19 1 -4 -17 -10 664 -7 987 0 85 6 184 12 220
24 145 121 307 228 384 28 20 53 36 56 36 3 0 35 14 70 30 35 17 98 41 141 53
l78 22 838 -4 c610 -2 837 0 837 8 0 8 1008 11 3770 11 l3770 0 0 -3765z
m-9633 3208 c-3 -10 -5 -4 -5 12 0 17 2 24 5 18 2 -7 2 -21 0 -30z m-60 -70
c-3 -10 -5 -2 -5 17 0 19 2 27 5 18 2 -10 2 -26 0 -35z m50 -440 c-1 -87 -3
-16 -3 157 0 173 2 244 3 158 2 -87 2 -229 0 -315z m4180 385 c-2 -13 -4 -3
-4 22 0 25 2 35 4 23 2 -13 2 -33 0 -45z m10 -1785 c-1 -307 -2 -56 -2 557 0
613 1 864 2 558 2 -307 2 -809 0 -1115z m-4270 -140 c-3 -10 -5 -2 -5 17 0 19
2 27 5 18 2 -10 2 -26 0 -35z m4270 -575 c-3 -8 -6 -5 -6 6 -1 11 2 17 5 13 3
-3 4 -12 1 -19z m-4254 -888 c3 -472 2 -830 -3 -800 -8 54 -14 1667 -6 1659 2
-2 7 -389 9 -859z m1607 310 l0 -390 -390 0 -390 0 0 390 0 390 390 0 390 0 0
-390z m350 225 l0 -165 50 0 c55 0 51 -6 54 83 1 26 3 27 52 27 l52 0 4 50 3
50 -52 0 -53 0 0 60 0 60 55 0 55 0 0 -55 0 -55 105 0 105 0 0 -55 0 -55 110
0 110 0 0 -55 0 -55 -104 0 -104 0 -4 -45 c-2 -24 -2 -49 0 -55 2 -5 26 -10
53 -10 l49 0 0 -54 0 -55 -52 -3 -53 -3 0 -53 0 -52 -52 0 -53 0 0 -49 0 -50
53 -3 52 -3 3 -52 3 -53 50 0 49 0 0 108 0 107 55 -3 55 -4 0 -323 0 -324 53
-3 52 -3 3 -102 3 -103 54 0 55 0 0 -110 0 -110 49 0 50 0 3 53 3 52 58 3 57
3 0 -111 0 -110 -109 0 -108 0 -6 45 c-2 26 -7 48 -9 50 -2 3 -25 6 -51 7
l-47 3 0 108 0 107 -110 0 -110 0 0 270 0 269 -107 3 -108 3 -3 53 -3 52 -55
0 -54 0 0 110 0 110 -55 0 -55 0 0 55 0 55 163 2 162 3 3 53 3 52 -214 0 -215
0 -7 56 -7 55 -46 -3 -47 -3 -3 -52 -3 -53 -55 0 -54 0 0 55 0 55 55 0 55 0 0
105 0 105 -55 0 -55 0 0 60 0 60 110 0 110 0 0 -165z m1570 -225 l0 -390 -391
-2 c-215 -2 -391 -2 -392 -1 -1 1 -1 177 1 392 l2 391 390 0 390 0 0 -390z
m-1570 -315 l0 -165 -110 0 -110 0 0 60 0 60 50 0 50 0 0 38 c0 20 3 67 7 105
l6 67 53 0 54 0 0 -165z m-1020 -240 l0 -55 -55 0 -55 0 0 55 0 55 55 0 55 0
0 -55z m330 0 l0 -55 110 0 110 0 0 -55 0 -55 -155 0 c-85 0 -158 -1 -162 -2
-5 -2 -9 48 -11 110 l-3 112 56 0 55 0 0 -55z m1582 3 l3 -53 103 -3 102 -3 1
41 c1 22 2 46 3 53 1 8 33 13 114 15 l112 3 0 -56 0 -55 -55 0 -55 0 0 -110 0
-110 -110 0 c-109 0 -110 0 -110 24 0 13 -3 38 -6 55 -6 31 -8 32 -53 29 l-46
-3 -3 -52 -3 -53 -55 0 -54 0 0 165 0 165 54 0 55 0 3 -52z m678 -3 l0 -55
-58 0 -59 0 -1 46 c-1 25 0 50 3 55 4 5 31 9 61 9 l54 0 0 -55z m-1480 -130
l0 -55 55 0 55 0 0 -55 0 -55 -55 0 -55 0 0 56 0 55 -47 -3 -48 -3 -9 -107 -9
-108 -48 0 -49 0 0 -50 0 -50 49 0 48 0 7 -60 c4 -32 6 -130 5 -217 l-1 -158
49 0 48 0 3 163 2 162 55 0 54 0 3 -52 3 -53 107 -3 107 -3 3 -52 3 -52 53 -3
52 -3 0 -159 0 -159 53 -3 52 -3 0 -110 0 -110 -52 -3 -53 -3 -1 -42 c-1 -23
-1 -45 0 -49 1 -8 -7 -9 -81 -11 l-33 -1 0 55 0 54 53 3 52 3 0 105 0 104
-160 0 -160 0 0 58 0 57 32 0 c18 1 66 2 106 3 l72 2 0 49 0 50 -52 3 -51 3
-2 40 c-1 22 -3 46 -4 53 -1 9 -15 12 -48 10 l-48 -3 -3 -52 -3 -53 -55 0 -54
0 0 -55 0 -55 -55 0 -55 0 0 55 0 55 -50 0 -50 0 -2 -92 c0 -51 -1 -100 -2
-108 -1 -11 -14 -15 -56 -15 l-55 0 -3 108 -3 107 -54 0 -55 0 0 105 0 105
-50 0 -50 0 0 55 0 55 -55 0 -55 0 0 55 0 55 -56 0 c-30 0 -53 -4 -50 -9 3 -5
3 -30 0 -55 l-7 -46 -48 0 -49 0 0 -50 0 -50 105 0 105 0 0 -55 0 -55 -165 0
-165 0 0 165 0 165 54 0 55 0 3 53 3 52 108 3 107 3 0 49 0 50 110 0 110 0 0
-50 0 -50 78 -2 c83 -1 113 -1 125 1 4 0 7 73 7 161 l0 160 110 0 110 0 0 -55z
m-890 -95 l0 -59 -107 -3 -108 -3 -3 -50 -3 -50 -52 1 -52 2 -3 111 -3 111
166 0 165 0 0 -60z m2368 -157 l-3 -218 -52 -3 -53 -3 0 -50 0 -49 55 0 55 0
0 -54 0 -54 -56 -4 c-31 -1 -58 -1 -60 1 -2 2 -4 26 -4 53 l0 48 -50 0 -50 0
0 -50 0 -50 -55 0 -55 0 0 55 0 55 49 0 c55 0 58 4 53 61 l-4 39 -49 0 -49 0
0 55 0 55 -55 0 -55 0 0 -55 0 -55 -55 0 -55 0 0 55 0 55 -55 0 -56 0 3 58 3
57 53 3 52 3 0 -55 0 -56 55 0 55 0 0 55 0 55 55 0 55 0 0 -55 0 -55 105 0
105 0 0 105 0 105 -52 0 -53 0 3 55 4 55 109 0 109 0 -2 -217z m-1160 -15 l-3
-113 -160 0 -160 0 -3 58 -3 57 111 0 110 0 0 55 0 55 55 0 56 0 -3 -112z
m-1428 -163 l0 -55 -55 0 -55 0 0 55 0 55 55 0 55 0 0 -55z m-933 -157 c-2
-13 -4 -5 -4 17 -1 22 1 32 4 23 2 -10 2 -28 0 -40z m933 -63 l0 -55 -55 0
-55 0 0 55 0 55 55 0 55 0 0 -55z m-933 -27 c-2 -13 -4 -3 -4 22 0 25 2 35 4
23 2 -13 2 -33 0 -45z m0 -50 c-3 -8 -6 -5 -6 6 -1 11 2 17 5 13 3 -3 4 -12 1
-19z m0 -125 c-2 -21 -4 -4 -4 37 0 41 2 58 4 38 2 -21 2 -55 0 -75z m1153
-20 l0 -58 -47 0 -48 0 -3 -107 -3 -108 50 0 50 0 3 -107 3 -108 163 -3 162
-2 0 -55 0 -55 55 0 55 0 0 -49 0 -50 53 -3 52 -3 3 -57 3 -58 -111 0 -110 0
0 110 0 110 -162 -2 -163 -3 -3 -52 -3 -53 -55 0 -54 0 0 54 0 55 53 3 52 3 3
53 3 52 -55 0 -56 0 0 55 0 55 -110 0 -110 0 0 110 0 110 55 0 55 0 0 110 0
110 110 0 110 0 0 -57z m220 2 l0 -55 55 0 55 0 0 -55 0 -55 55 0 55 0 0 -54
0 -55 -52 -3 -53 -3 -3 -52 -3 -53 -55 0 -54 0 0 55 0 55 -55 0 -55 0 0 54 0
55 53 3 52 3 3 53 3 52 -55 0 -56 0 0 55 0 55 55 0 55 0 0 -55z m2148 -427 l2
-388 -390 -2 -390 -3 0 393 0 392 388 -2 387 -3 3 -387z m-3521 170 c-3 -7 -5
-2 -5 12 0 14 2 19 5 13 2 -7 2 -19 0 -25z m2043 -43 l0 -55 -55 0 -55 0 0 55
0 55 55 0 55 0 0 -55z m-210 -196 l0 -110 48 3 47 3 3 53 3 52 55 0 c52 0 54
-1 56 -27 0 -16 2 -32 3 -38 2 -5 3 -17 4 -26 1 -12 11 -15 49 -14 l47 2 3 52
3 51 55 0 54 0 0 -105 c0 -116 -6 -106 73 -107 l37 0 0 -59 0 -59 -55 0 -55 0
0 56 0 55 -52 -3 c-33 -2 -53 -8 -54 -15 -1 -7 -2 -31 -3 -53 l-1 -40 -55 0
-55 0 0 110 0 110 -50 0 -50 0 0 -55 0 -55 -60 0 -60 0 0 55 0 55 -55 0 -55 0
0 110 0 110 60 0 60 0 0 -111z m760 -275 l0 -54 -55 0 -55 0 0 54 0 55 48 3
c26 2 50 2 55 0 4 -2 7 -28 7 -58z m1767 -2546 c-3 -7 -5 -2 -5 12 0 14 2 19
5 13 2 -7 2 -19 0 -25z m-217 -442 c0 -2 -8 -10 -17 -17 -16 -13 -17 -12 -4 4
13 16 21 21 21 13z m-1357 -303 c-74 -102 -94 -124 -105 -117 -4 3 -5 11 -1
17 4 7 -2 5 -12 -3 -16 -13 -18 -13 -13 0 2 8 11 15 19 15 27 1 70 37 64 54
-3 8 -3 12 1 9 7 -8 64 65 64 81 0 9 16 18 33 20 4 1 -18 -34 -50 -76z m-28
17 c3 -5 1 -10 -4 -10 -6 0 -11 5 -11 10 0 6 2 10 4 10 3 0 8 -4 11 -10z"/>
<path d="M11585 11752 c58 -36 159 -155 198 -235 42 -84 82 -250 73 -304 l-5
-33 160 0 159 0 2 -757 3 -758 30 -3 c83 -7 209 -47 281 -88 69 -39 84 -44
141 -44 l63 0 0 240 0 240 120 0 120 0 0 -360 0 -360 -95 0 c-52 0 -95 -1 -95
-2 0 -2 7 -28 15 -58 18 -69 19 -160 1 -228 l-13 -52 198 0 199 0 0 -120 0
-120 120 0 120 0 0 -120 0 -120 -119 0 -118 0 -7 31 c-3 17 -6 71 -6 120 l0
89 -115 0 -115 0 0 -234 c0 -212 -2 -234 -17 -240 -10 -4 -56 -7 -103 -6 -47
1 -93 1 -102 1 -16 -1 -18 -13 -18 -117 0 -114 0 -115 23 -114 12 1 66 2 120
1 l97 -1 0 -475 0 -475 -120 0 -120 0 0 -235 0 -235 -120 0 -120 0 0 204 0
204 -24 -2 c-13 0 -22 -4 -20 -7 2 -4 -5 -9 -15 -12 -13 -3 -18 0 -16 12 2 9
4 20 4 25 1 4 8 5 17 2 8 -3 12 -2 9 4 -3 6 1 13 9 16 9 3 16 14 16 23 0 14 2
14 10 1 8 -12 10 -9 10 12 0 21 4 26 17 21 9 -4 14 -2 10 4 -3 5 -9 36 -12 69
-7 66 -14 83 -16 38 -1 -29 -1 -29 -9 -4 -8 24 -8 24 -9 3 -1 -14 -7 -23 -17
-23 -8 0 -20 -13 -25 -30 -7 -19 -18 -30 -29 -30 -11 0 -22 -4 -25 -10 -4 -6
14 -10 47 -11 l53 -1 -47 -10 c-27 -6 -48 -14 -48 -19 0 -5 -4 -9 -10 -9 -5 0
-10 10 -10 22 0 21 0 21 -15 2 -14 -19 -15 -19 -21 2 -4 17 -16 23 -50 27 -54
6 -154 53 -154 73 0 8 -5 14 -11 14 -33 0 -86 105 -115 225 -15 64 -19 117
-19 270 1 430 5 459 64 475 20 5 42 10 49 10 6 0 12 4 12 9 0 14 -26 32 -35
23 -5 -4 -5 -2 -2 4 9 15 -10 29 -48 38 -16 4 -38 9 -47 12 -17 5 -18 -6 -18
-134 0 -101 -4 -149 -15 -175 -12 -30 -15 -98 -14 -394 0 -197 5 -394 11 -438
5 -44 12 -129 13 -190 3 -65 8 -111 14 -113 13 -4 15 -94 2 -107 -5 -6 -12
-41 -15 -80 -3 -38 -10 -124 -16 -190 -13 -147 -3 -795 12 -795 6 0 6 -6 -1
-14 -9 -11 -5 -15 21 -19 18 -3 71 -17 118 -30 47 -14 97 -28 113 -31 27 -6
27 -7 27 -91 l0 -85 115 0 115 0 0 -120 0 -120 -42 0 -43 0 60 -25 c79 -33
131 -71 185 -138 106 -130 159 -256 160 -375 l0 -72 2188 2 2187 3 0 3130 c0
1722 -2 3352 -4 3623 l-3 492 -2757 0 c-2681 0 -2755 -1 -2726 -18z m1355
-927 l0 -355 115 0 114 0 3 118 3 117 118 3 117 3 0 114 0 115 -120 0 -120 0
0 120 0 120 125 0 125 0 0 -120 0 -120 230 0 230 0 0 -115 0 -115 220 -1 c121
-1 225 -3 230 -4 6 -1 15 -3 20 -4 6 -1 10 -48 10 -121 l0 -120 -235 0 -235 0
0 -115 0 -115 115 0 115 0 0 -120 0 -120 -77 -2 c-43 -1 -95 -2 -116 -3 l-37
0 0 -117 0 -117 -117 -3 -118 -3 -3 -117 -3 -118 120 0 120 0 3 -117 3 -118
100 0 c55 0 106 2 113 4 9 2 12 58 12 237 l0 234 120 0 120 0 0 -720 0 -720
120 0 120 0 0 -230 0 -230 120 0 120 0 0 -240 0 -240 115 0 115 0 2 93 c1 50
2 99 4 107 1 8 2 21 3 28 1 9 32 12 121 12 l120 0 0 -240 0 -240 -240 0 -240
0 0 120 0 120 -120 0 -120 0 -2 238 -3 237 -35 -3 c-19 -2 -126 0 -237 3
l-203 7 0 589 0 589 -237 2 -238 3 -3 118 -3 117 -113 0 -113 0 -7 77 c-3 42
-6 147 -6 233 0 135 -2 159 -16 164 -9 3 -60 6 -115 6 l-99 0 0 120 0 120 355
0 355 0 0 115 0 115 -472 2 -473 3 -3 118 -3 117 -114 0 -114 0 -3 -117 -3
-118 -117 -3 -118 -3 0 126 0 125 120 0 120 0 0 213 c0 116 -3 222 -6 235 -6
21 -11 22 -120 22 l-114 0 0 120 0 120 240 0 240 0 0 -355z m3430 -500 l0
-855 -855 0 -855 0 0 855 0 855 855 0 855 0 0 -855z m-1480 -1205 l0 -120 235
0 235 0 0 120 0 120 240 0 240 0 0 -120 0 -120 -69 0 c-37 0 -89 -3 -114 -6
l-47 -7 -2 -231 -3 -231 -242 -3 -243 -2 0 120 0 120 -115 0 -115 0 0 -120 0
-120 -120 0 -120 0 0 360 0 360 120 0 120 0 0 -120z m1480 0 l0 -120 -120 0
-120 0 0 120 0 120 120 0 120 0 0 -120z m0 -840 l0 -480 -120 0 -120 0 0 -115
0 -115 120 0 120 0 0 -120 0 -120 -120 0 -120 0 0 114 c0 98 -2 115 -16 118
-9 2 -63 2 -120 0 l-104 -3 0 -115 0 -114 -120 0 -120 0 0 120 0 120 120 0
120 0 0 115 0 114 -117 3 -118 3 -3 118 -3 117 -114 0 -114 0 -3 -117 -3 -118
-120 0 -120 0 -3 118 -3 117 -113 0 -114 0 -6 63 c-4 34 -6 88 -5 120 l2 57
124 0 123 0 0 -115 0 -115 115 0 115 0 0 114 0 115 120 3 120 3 0 -71 c0 -39
3 -92 6 -118 l7 -46 233 0 234 0 0 235 0 235 -120 0 -120 0 0 120 0 120 240 0
240 0 0 -480z m-2540 -40 l0 -240 -357 2 -358 3 0 120 0 120 238 3 237 2 0
115 0 115 120 0 120 0 0 -240z m-452 -592 l3 -118 233 0 234 0 7 -120 8 -120
113 0 114 0 0 -355 0 -354 118 -3 117 -3 3 -237 2 -238 -77 -2 c-43 -1 -85 -2
-93 -4 -8 -1 -27 -2 -42 -3 l-28 -1 0 -115 0 -115 -125 0 -126 0 3 118 3 117
120 5 120 5 0 230 0 230 -355 5 -355 5 -3 116 -3 117 241 7 240 8 0 113 0 114
-120 0 -120 0 0 120 0 120 -115 0 -115 0 0 -120 0 -120 -120 0 -120 0 0 -120
0 -120 -120 0 -120 0 0 120 0 120 115 0 115 0 0 329 c0 181 3 342 6 358 l6 30
116 -1 117 -1 3 -117z m2992 -1663 l0 -855 -852 2 -853 3 -3 853 -2 852 855 0
855 0 0 -855z m-4166 705 c80 -30 169 -100 225 -176 70 -96 152 -280 159 -358
5 -64 13 -76 48 -76 19 0 21 -7 27 -97 4 -54 7 -160 7 -235 l0 -138 115 0 115
0 0 120 0 120 120 0 120 0 0 -120 0 -120 120 0 120 0 0 120 0 120 120 0 120 0
0 -240 0 -240 120 0 120 0 0 -120 0 -120 -120 0 -120 0 0 120 0 121 -97 -5
c-54 -3 -108 -6 -120 -6 -23 0 -23 -2 -23 -115 l0 -115 -120 0 -120 0 0 235 0
235 -120 0 -120 0 0 -115 0 -115 -120 0 -120 0 0 115 0 115 -92 1 c-111 2
-115 1 -150 -16 -27 -13 -28 -12 -28 11 0 13 6 24 13 24 33 0 59 72 58 155 -1
11 -1 30 -1 43 0 27 -8 28 -26 5 -12 -16 -13 -15 -14 10 0 35 -25 36 -43 1 -9
-18 -17 -23 -21 -15 -5 8 -17 1 -37 -21 -16 -18 -29 -36 -29 -40 0 -13 -58
-26 -69 -15 -8 8 -14 8 -23 -1 -8 -8 -15 -8 -23 -2 -9 7 -16 5 -25 -5 -18 -22
-63 -19 -78 5 -7 11 -16 20 -22 20 -31 0 -96 96 -124 181 -42 132 -47 428 -8
506 38 75 83 153 93 159 5 3 7 10 4 15 -4 5 14 9 39 9 25 0 48 -5 52 -12 11
-17 23 23 17 55 -6 28 -16 33 -83 41 -19 2 -3 2 37 0 39 -2 96 -13 127 -24z
m936 -412 l0 -123 -58 -3 c-31 -1 -85 0 -119 3 l-63 7 0 119 0 119 120 0 120
0 0 -122z m1196 -1030 l1 -118 -124 0 -123 0 0 120 0 121 123 -3 122 -3 1
-117z"/>
<path d="M13420 10585 l0 -115 230 0 230 0 0 115 0 115 -230 0 -230 0 0 -115z"/>
<path d="M14780 10325 l0 -735 735 0 735 0 0 735 0 735 -735 0 -735 0 0 -735z
m1200 5 l0 -460 -465 0 -465 0 0 453 c0 250 3 457 7 460 3 4 213 7 465 7 l458
0 0 -460z"/>
<path d="M14780 5985 l0 -735 735 0 735 0 0 735 0 735 -735 0 -735 0 0 -735z
m1200 5 l0 -460 -465 0 -465 0 0 453 c0 250 3 457 7 460 3 4 213 7 465 7 l458
0 0 -460z"/>
<path d="M12179 6613 c6 -12 12 -37 12 -55 1 -18 3 -25 6 -16 2 9 10 18 18 20
9 2 4 14 -17 38 -17 19 -25 25 -19 13z"/>
<path d="M12405 5600 c-3 -6 1 -7 9 -4 18 7 21 14 7 14 -6 0 -13 -4 -16 -10z"/>
<path d="M11865 10353 c3 -389 7 -708 9 -710 1 -2 41 3 87 10 l84 13 3 697 2
697 -95 0 -95 0 5 -707z"/>
<path d="M11898 9572 c-17 -3 -18 -41 -18 -622 l0 -619 93 39 c131 54 198 90
192 101 -3 5 1 6 10 3 11 -5 14 -2 8 12 -4 12 -3 15 5 10 7 -4 19 0 28 9 9 9
23 14 31 11 7 -3 16 1 19 9 3 8 25 26 49 39 48 28 116 91 108 99 -3 3 11 9 30
12 34 7 53 27 42 45 -3 5 -12 7 -20 3 -8 -3 -15 -1 -15 4 0 18 12 22 31 12 15
-7 19 -6 19 6 0 8 -7 15 -15 15 -18 0 -20 21 -3 38 10 10 8 14 -10 18 -12 4
-22 11 -22 16 0 6 -7 4 -16 -3 -14 -11 -18 -11 -28 1 -6 8 -21 16 -33 18 -17
2 -23 -2 -23 -17 0 -29 -16 -35 -33 -11 -12 18 -16 18 -33 5 -10 -8 -31 -15
-45 -15 -21 0 -28 -6 -32 -30 -4 -16 -11 -30 -17 -30 -6 0 -8 10 -4 24 3 13 1
27 -5 30 -15 10 -14 46 2 47 6 0 2 5 -10 11 -16 8 -23 20 -23 40 0 25 -3 28
-35 28 -33 0 -35 2 -35 34 0 19 -3 43 -6 53 -5 15 -4 15 5 3 5 -8 13 -11 17
-7 4 3 2 13 -5 21 -13 15 -16 70 -8 159 4 46 2 57 -10 57 -12 0 -13 3 -4 14 9
10 8 16 -3 25 -8 7 -15 20 -15 29 -2 44 -14 92 -25 92 -6 0 -4 5 4 11 11 8 12
12 3 16 -22 8 -14 21 10 15 20 -5 21 -4 8 11 -7 9 -20 17 -27 17 -8 0 -14 4
-14 9 0 5 10 7 23 4 22 -5 22 -5 2 10 -11 9 -27 17 -35 17 -10 1 -11 3 -2 7 6
2 12 9 12 14 0 6 -6 9 -12 8 -32 -4 -68 2 -80 14 -7 7 -21 11 -30 9z m562
-792 c0 -5 -5 -10 -11 -10 -5 0 -7 5 -4 10 3 6 8 10 11 10 2 0 4 -4 4 -10z"/>
<path d="M12520 8781 c0 -6 4 -13 10 -16 6 -3 7 1 4 9 -7 18 -14 21 -14 7z"/>
<path d="M12610 8744 c-60 -61 -234 -179 -251 -169 -8 5 -10 4 -5 -3 6 -10
-25 -32 -139 -93 l-30 -17 0 -93 c0 -52 1 -102 3 -111 4 -17 24 -18 238 -18
l234 0 0 275 c0 151 -1 275 -3 275 -2 0 -23 -21 -47 -46z"/>
<path d="M12310 7990 c0 -6 21 -30 47 -53 26 -23 77 -72 114 -109 l68 -68 61
0 61 0 -3 118 -3 117 -172 3 c-118 2 -173 -1 -173 -8z"/>
<path d="M12620 7489 c0 -18 -4 -59 -10 -93 -5 -33 -14 -101 -20 -151 -10 -85
-37 -160 -64 -177 -6 -4 22 -8 62 -8 l72 0 0 230 c0 223 -1 230 -20 230 -16 0
-20 -7 -20 -31z"/>
<path d="M11882 5233 c5 -253 4 -373 -4 -386 -13 -25 -19 -437 -8 -557 11
-120 28 -221 41 -237 8 -8 8 -13 1 -13 -6 0 -10 -21 -9 -47 0 -27 2 -42 4 -35
3 6 12 12 20 12 13 0 13 3 2 16 -10 13 -10 17 0 24 11 6 11 9 0 13 -34 12 14
29 92 33 79 4 139 20 139 36 0 5 19 8 42 8 34 0 49 6 74 31 28 27 31 34 21 52
-9 15 -9 21 0 24 9 3 9 10 -3 28 -10 16 -15 43 -13 83 1 32 -1 63 -4 69 -4 6
-4 19 -1 30 4 13 3 14 -4 5 -5 -8 -24 -12 -48 -10 -32 2 -41 -1 -49 -19 -5
-13 -18 -23 -27 -23 -10 0 -18 -7 -18 -15 0 -9 -12 -18 -30 -21 -16 -4 -30
-10 -30 -15 0 -20 -24 -6 -69 39 -67 66 -71 80 -76 242 -2 70 2 128 12 175 9
39 17 100 17 136 1 41 6 72 15 83 12 14 12 19 2 26 -11 6 -11 9 0 13 14 6 -11
11 -41 8 -8 -1 12 12 45 28 34 17 69 28 80 25 17 -4 18 -3 5 6 -12 9 -10 11
12 7 17 -2 29 1 32 9 4 11 -15 14 -99 14 l-105 0 0 235 c0 181 -3 235 -12 235
-10 0 -12 -76 -6 -367z"/>
<path d="M12466 4435 c-3 -8 -2 -15 3 -15 5 0 14 7 21 15 10 12 10 15 -3 15
-8 0 -17 -7 -21 -15z"/>
<path d="M8400 8145 l0 -335 335 0 335 0 0 335 0 335 -335 0 -335 0 0 -335z
m558 3 l-3 -213 -210 0 -210 0 -3 213 -2 212 215 0 215 0 -2 -212z"/>
<path d="M9778 8313 l-88 -4 0 -49 0 -50 106 0 105 0 -3 52 c-2 39 -7 53 -18
53 -8 1 -54 0 -102 -2z"/>
<path d="M10310 8145 l0 -335 335 0 335 0 0 335 0 335 -335 0 -335 0 0 -335z
m548 3 l-3 -213 -210 0 -210 0 -3 200 c-1 110 0 205 2 212 4 10 54 13 216 13
l210 0 -2 -212z"/>
<path d="M9020 7030 l0 -50 55 0 55 0 0 -55 0 -55 50 0 50 0 0 55 0 55 55 0
55 0 0 50 0 50 -160 0 -160 0 0 -50z"/>
<path d="M9240 6760 l0 -100 50 0 50 0 0 100 0 100 -50 0 -50 0 0 -100z"/>
<path d="M8890 6376 l0 -56 53 0 52 0 -1 53 0 52 -52 3 -52 3 0 -55z"/>
<path d="M10310 6165 l0 -335 335 0 335 0 0 335 0 335 -335 0 -335 0 0 -335z
m548 3 l-3 -213 -210 0 -210 0 -3 200 c-1 110 0 205 2 212 4 10 54 13 216 13
l210 0 -2 -212z"/>
<path d="M7040 8047 c0 -7 -9 -18 -20 -25 -11 -7 -20 -17 -20 -22 0 -17 46
-11 63 8 23 26 22 52 -3 52 -11 0 -20 -6 -20 -13z"/>
<path d="M6745 7419 c12 -18 49 -27 77 -17 16 6 26 14 23 19 -3 4 -18 4 -32
-2 -18 -7 -30 -6 -37 1 -13 13 -39 13 -31 -1z"/>
<path d="M6862 7398 c2 -6 10 -14 16 -16 7 -2 10 2 6 12 -7 18 -28 22 -22 4z"/>
<path d="M6885 7290 c-3 -5 1 -10 9 -10 9 0 16 5 16 10 0 6 -4 10 -9 10 -6 0
-13 -4 -16 -10z"/>
<path d="M6880 7250 c0 -5 5 -10 11 -10 5 0 7 5 4 10 -3 6 -8 10 -11 10 -2 0
-4 -4 -4 -10z"/>
<path d="M6872 7130 c-6 -10 -8 -21 -3 -24 5 -3 11 4 14 16 8 29 4 32 -11 8z"/>
<path d="M6842 7056 c-7 -15 -16 -25 -20 -22 -13 8 -27 -6 -56 -52 -15 -23
-41 -52 -59 -62 -18 -11 -27 -21 -22 -22 6 0 21 -2 35 -3 14 -2 33 -6 43 -10
14 -6 17 -2 17 21 0 15 6 35 14 43 23 26 68 111 64 123 -2 6 -9 -2 -16 -16z
m-47 -76 c-3 -5 -12 -10 -18 -10 -7 0 -6 4 3 10 19 12 23 12 15 0z"/>
<path d="M6205 2630 c27 -12 35 -12 35 0 0 6 -12 10 -27 9 -25 0 -26 -1 -8 -9z"/>
<path d="M9620 2460 c0 -5 7 -10 16 -10 8 0 12 5 9 10 -3 6 -10 10 -16 10 -5
0 -9 -4 -9 -10z"/>
<path d="M5950 2322 c0 -7 91 -32 118 -32 27 0 10 20 -25 29 -45 13 -93 14
-93 3z"/>
<path d="M6104 2062 c-12 -10 -25 -28 -29 -41 -7 -22 -5 -23 37 -19 43 3 104
-16 123 -38 12 -15 85 -24 85 -11 0 22 -61 67 -90 67 -23 0 -30 4 -30 20 0 13
-10 24 -26 30 -35 14 -46 12 -70 -8z"/>
<path d="M6383 1852 c-6 -4 -11 -31 -12 -59 0 -44 2 -53 17 -53 15 0 15 -2 2
-10 -8 -5 -22 -7 -32 -4 -9 2 -19 0 -23 -6 -3 -5 -35 -10 -71 -10 -60 0 -65 2
-76 26 -11 23 -9 28 12 46 l25 20 -32 -6 c-27 -5 -33 -2 -33 13 0 10 -11 23
-25 29 -31 14 -55 15 -55 3 0 -5 -18 -12 -40 -16 -22 -4 -38 -10 -35 -14 2 -5
-7 -6 -20 -3 -14 2 -31 0 -38 -6 -7 -6 -23 -9 -36 -5 -17 4 -23 1 -28 -16 -4
-18 -13 -21 -54 -21 l-49 0 2 -55 c2 -30 6 -55 11 -55 4 0 0 -11 -9 -25 -9
-14 -24 -25 -33 -25 -14 0 -14 2 -1 10 13 9 13 11 0 20 -8 6 -26 8 -40 5 -14
-3 -38 -8 -55 -10 -16 -3 -37 -13 -45 -23 -21 -25 -40 -31 -68 -21 -19 7 -25
4 -34 -16 -12 -28 -43 -33 -52 -10 -5 14 -8 14 -31 -1 -23 -15 -27 -15 -68 5
-24 12 -51 21 -59 21 -17 0 -70 -59 -63 -71 3 -3 23 -9 46 -12 23 -3 50 -14
61 -24 16 -17 17 -24 7 -49 l-12 -29 -6 24 c-11 40 -33 39 -29 0 3 -26 10 -35
26 -37 23 -4 29 -17 12 -27 -5 -3 -7 -12 -4 -19 3 -7 -1 -18 -9 -25 -11 -9
-17 -8 -26 3 -9 11 -20 12 -43 5 -18 -5 -36 -13 -41 -18 -5 -5 -25 -7 -43 -4
-20 3 -40 1 -48 -6 -8 -7 -31 -13 -50 -14 -20 -1 -36 -5 -36 -9 0 -5 -9 -8
-20 -8 -12 0 -17 -5 -14 -14 3 -8 -9 -26 -30 -43 -20 -15 -36 -33 -36 -39 0
-17 -49 -66 -59 -59 -5 3 -12 1 -15 -4 -3 -5 -14 -7 -24 -5 -18 5 -42 -34 -42
-69 0 -10 -5 -17 -12 -15 -7 3 -18 -1 -25 -8 -13 -13 -110 -37 -121 -30 -4 2
-8 -6 -9 -17 -7 -67 -16 -107 -24 -107 -5 0 -9 7 -9 15 0 13 -8 15 -37 10 -55
-9 -65 -14 -58 -25 3 -6 0 -13 -8 -16 -8 -3 -17 -18 -20 -34 -4 -20 -13 -29
-29 -32 -15 -2 -24 -11 -26 -27 -2 -13 -14 -34 -27 -47 -13 -13 -27 -40 -31
-59 -3 -19 -9 -35 -13 -35 -4 0 -23 -13 -41 -30 -25 -22 -44 -30 -71 -30 -32
0 -36 -3 -32 -20 5 -19 -6 -29 -41 -34 -8 -1 -25 -14 -36 -29 -12 -15 -28 -27
-36 -27 -8 0 -14 -8 -14 -19 0 -22 -60 -54 -84 -45 -18 7 -63 -42 -58 -63 2
-7 -5 -13 -15 -13 -10 -1 -34 -21 -53 -46 -23 -30 -48 -48 -72 -56 -21 -6 -38
-17 -38 -25 0 -7 -5 -13 -10 -13 -18 0 -70 -43 -70 -57 0 -7 -6 -13 -14 -13
-7 0 -19 -7 -26 -15 -7 -8 -22 -15 -34 -15 -12 0 -26 -4 -31 -9 -6 -6 -23 -12
-39 -14 -17 -2 -32 -9 -34 -15 -3 -9 103 -12 432 -12 l436 0 0 24 c0 13 -6 27
-12 29 -8 3 -6 6 5 6 12 1 17 -7 17 -29 l0 -29 1335 -1 1335 0 -1 37 c0 21 -3
32 -6 26 -2 -7 -17 -13 -31 -12 l-27 0 23 11 c15 8 21 16 16 27 -4 9 -9 29
-12 44 -2 16 -10 31 -18 34 -7 2 -11 10 -8 17 9 25 -15 66 -38 66 -13 0 -30 5
-38 10 -13 9 -13 12 4 25 11 8 16 21 13 30 -4 8 -2 26 3 39 10 27 -4 48 -27
39 -8 -3 -19 0 -23 7 -5 8 -9 9 -14 1 -4 -6 -2 -11 3 -11 6 0 11 -7 11 -15 0
-8 -7 -15 -15 -15 -8 0 -15 -4 -15 -10 0 -5 -11 -10 -25 -10 -26 0 -34 -15
-13 -22 9 -3 9 -6 0 -12 -7 -4 -12 -2 -12 4 0 7 -6 8 -19 1 -10 -6 -22 -7 -25
-3 -4 4 -16 -4 -28 -18 -11 -14 -17 -19 -13 -12 4 8 -2 12 -18 12 -18 0 -29
10 -43 39 -10 22 -29 42 -44 48 -19 7 -29 22 -40 61 -14 53 -28 63 -50 37 -15
-18 -69 -19 -93 -1 -9 7 -28 11 -42 8 -22 -4 -25 -1 -25 22 0 16 -5 26 -15 26
-20 0 -19 24 1 41 14 12 14 14 1 24 -18 13 -6 40 14 33 17 -6 49 9 49 23 0 6
-5 7 -12 3 -8 -5 -9 2 -5 23 5 25 2 32 -13 36 -26 7 -26 37 0 44 27 7 66 81
51 96 -16 16 -14 42 2 29 8 -7 23 -7 50 1 42 13 46 21 17 39 -21 13 -28 48
-10 48 6 0 10 9 10 20 0 15 -7 20 -25 20 -21 0 -25 -4 -20 -22 8 -35 -7 -49
-44 -42 -25 5 -32 11 -28 25 3 11 1 21 -4 24 -4 3 -6 12 -2 20 6 18 -8 20 -25
3 -9 -9 -11 -1 -8 34 4 54 26 91 52 86 15 -2 21 6 28 40 9 40 11 42 47 42 46
0 92 16 84 30 -3 5 1 10 9 10 19 0 29 17 20 32 -13 21 -14 62 -1 78 7 8 19 38
26 65 7 28 21 59 32 71 24 26 24 34 0 34 -21 0 -91 27 -91 36 0 3 3 3 8 1 4
-2 24 16 46 40 l39 43 -50 0 c-56 0 -70 10 -76 55 -3 20 -9 30 -21 29 -9 -1
-26 12 -38 30 -12 17 -26 33 -30 34 -4 2 -8 8 -8 14 0 16 -26 37 -37 30z m37
-612 c0 -5 -4 -10 -10 -10 -5 0 -10 5 -10 10 0 6 5 10 10 10 6 0 10 -4 10 -10z
m-104 -248 c-11 -10 -14 3 -8 33 l7 30 3 -28 c2 -16 1 -31 -2 -35z m-80 -9
c-10 -10 -19 5 -10 18 6 11 8 11 12 0 2 -7 1 -15 -2 -18z m-1816 -813 c0 -5
-4 -10 -10 -10 -5 0 -10 5 -10 10 0 6 5 10 10 10 6 0 10 -4 10 -10z"/>
<path d="M6195 1820 c-3 -5 3 -10 14 -10 10 0 28 -3 38 -7 17 -6 17 -6 1 10
-19 19 -44 22 -53 7z"/>
<path d="M6500 940 c0 -5 7 -10 15 -10 8 0 15 5 15 10 0 6 -7 10 -15 10 -8 0
-15 -4 -15 -10z"/>
<path d="M8245 431 c-3 -5 -2 -12 3 -15 5 -3 9 1 9 9 0 17 -3 19 -12 6z"/>
<path d="M8200 400 c0 -5 5 -10 10 -10 6 0 10 5 10 10 0 6 -4 10 -10 10 -5 0
-10 -4 -10 -10z"/>
<path d="M8137 364 c-16 -13 -22 -24 -14 -24 20 0 50 25 46 38 -2 6 -16 0 -32
-14z"/>
<path d="M7992 254 c-7 -8 -8 -14 -3 -14 10 0 25 19 20 25 -2 1 -10 -3 -17
-11z"/>
<path d="M7105 140 c-3 -5 -1 -10 4 -10 6 0 11 -8 11 -17 0 -12 3 -14 10 -7
11 11 3 44 -10 44 -5 0 -12 -4 -15 -10z"/>
<path d="M7240 116 c0 -8 5 -18 10 -21 6 -3 10 3 10 14 0 12 -4 21 -10 21 -5
0 -10 -6 -10 -14z"/>
<path d="M7086 113 c-11 -11 -6 -23 9 -23 8 0 15 4 15 9 0 13 -16 22 -24 14z"/>
</g>
</svg>
